<?xml version="1.0" encoding="UTF-8"?>
<svg id="Layer_1" data-name="Layer 1" xmlns="http://www.w3.org/2000/svg" viewBox="0 0 1401.3 172.73">
  <defs>
    <style>
      .cls-1 {
        fill: #231f20;
      }
    </style>
  </defs>
  <path class="cls-1" d="m380.39,172.72l-49.74-66.64h-49v66.64h-19.35V1.23h73.75c9.47,0,18.01,1.23,25.6,3.68,7.59,2.45,14.09,5.92,19.48,10.42s9.55,9.89,12.5,16.18c2.94,6.29,4.41,13.28,4.41,20.96,0,7.19-1.14,13.6-3.43,19.24-2.29,5.64-5.51,10.54-9.68,14.71-4.17,4.17-9.11,7.64-14.82,10.42-5.72,2.78-11.92,4.74-18.62,5.88l52.67,70.02h-23.76Zm-13.26-144.64c-7.69-5.98-18.5-8.97-32.42-8.97h-53.05v69.82h52.81c6.39,0,12.28-.82,17.68-2.46,5.41-1.64,10.07-3.98,14-7.01,3.93-3.03,7-6.76,9.21-11.19,2.21-4.43,3.31-9.42,3.31-15,0-10.82-3.85-19.22-11.55-25.2Z"/>
  <path class="cls-1" d="m575.65,125.68h-.98l-62.48-91.63v138.67h-18.87V1.23h19.6l62.48,93.59L637.88,1.23h19.6v171.5h-19.35V33.81l-62.47,91.87Z"/>
  <path class="cls-1" d="m919.63,172.72h-20.82l-20.09-45.33h-93.34l-20.33,45.33h-19.84L823.35,0h18.13l78.16,172.72Zm-87.46-149.94l-39.2,87.46h78.16l-38.96-87.46Z"/>
  <path class="cls-1" d="m1151.4,120.66c-4.41,10.54-10.66,19.64-18.74,27.32-8.08,7.68-17.72,13.72-28.91,18.13-11.19,4.41-23.48,6.62-36.87,6.62h-59.54V1.23h59.54c13.39,0,25.68,2.17,36.87,6.49,11.19,4.33,20.83,10.33,28.91,18.01,8.08,7.68,14.33,16.74,18.74,27.19,4.41,10.45,6.61,21.72,6.61,33.81s-2.21,23.4-6.61,33.93Zm-18.5-60.15c-3.35-8.33-8.08-15.56-14.21-21.68s-13.6-10.94-22.42-14.46c-8.82-3.51-18.62-5.27-29.4-5.27h-40.18v135.73h40.18c10.78,0,20.58-1.71,29.4-5.15,8.82-3.43,16.29-8.21,22.42-14.33s10.86-13.27,14.21-21.44c3.35-8.17,5.02-17.07,5.02-26.7s-1.68-18.38-5.02-26.71Z"/>
  <path class="cls-1" d="m1401.3,172.72h-20.83l-20.09-45.33h-93.34l-20.33,45.33h-19.85L1305.02,0h18.13l78.16,172.72Zm-87.46-149.94l-39.2,87.46h78.16l-38.96-87.46Z"/>
  <path d="m19.81,172.72s-3.65-.02-7.2,0c-2.67.02-8.23,0-12.6,0,13.22-29.19,26.19-57.85,38.74-85.61C50.62,60.82,78,.33,78,.33c0,0,13.74-.15,18.13,0,15.01,34.22,34.9,76.55,50.38,110.57,3.41,7.5,7.17,14.84,10.94,22.17,9.96,19.35,24.98,30.38,47.81,28.37-5.56,8.86-18.03,12.98-29.7,9.89-17.29-4.58-28.62-16.61-35.95-31.84-2.1-4.36-6.35-12-6.35-12,0,0-8.09-.06-13.85.03-10.19.03-19.78-.11-29.71-.09l-49.6.05m85.96-17.12c-12.82-28.76-26.32-58.24-39.26-87.29-13.1,29.25-26.35,58.77-39.12,87.29h78.38Z"/>
</svg>